#!OML:ASF H:\Terrain\Patient Classification 1\Terrain2\Thursday\justin.ASF
:FULLY-SPECIFIED
:DEGREES
366
root 8.27466 18.3146 10.4037 -1.60628 7.31768 -7.13436
lowerback 6.79596 0.0250757 5.93279
upperback 0.218487 0.634087 3.55032
thorax -3.5696 0.246908 0.289016
lowerneck -15.3352 -4.83806 -10.0202
upperneck 20.1079 -5.57287 6.02959
head 9.32374 -2.72658 3.03047
rclavicle 1.0958e-014 2.78299e-015
rhumerus -39.1645 -4.41386 -76.9166
rradius 33.7589
rwrist -12.8194
rhand -18.1832 12.3974
rfingers 7.12502
rthumb 8.09354 -17.4276
lclavicle 1.0958e-014 2.78299e-015
lhumerus -40.1808 5.4829 79.8732
lradius 36.9599
lwrist 5.40296
lhand -15.1687 22.5183
lfingers 7.12502
lthumb 11.0021 52.21
rfemur 7.79834 -10.3096 33.275
rtibia 9.68121
rfoot -9.33531 4.75663
rtoes -13.2965
lfemur -30.1138 14.241 4.89364
ltibia 123.218
lfoot -16.325 -10.3914
ltoes 15.9253
367
root 8.28787 18.3038 10.4712 -1.52213 6.92237 -7.1866
lowerback 6.81736 0.286231 6.17322
upperback 0.36648 0.992989 3.57259
thorax -3.41033 0.426682 0.143582
lowerneck -15.446 -4.90696 -10.1682
upperneck 19.9442 -5.61319 6.03337
head 9.2963 -2.75262 3.04743
rclavicle 4.37326e-015 -2.22639e-014
rhumerus -38.3963 -4.5463 -76.4787
rradius 33.2225
rwrist -10.6938
rhand -17.4977 12.3338
rfingers 7.12502
rthumb 8.75507 -17.4646
lclavicle 4.37326e-015 -2.22639e-014
lhumerus -39.8822 5.43906 80.0226
lradius 37.2696
lwrist 5.24142
lhand -14.7416 21.9849
lfingers 7.12502
lthumb 11.414 51.6542
rfemur 8.11062 -10.4972 33.1678
rtibia 9.51951
rfoot -9.38639 5.19112
rtoes -13.9115
lfemur -31.4077 14.1198 3.91812
ltibia 122.239
lfoot -17.1442 -11.1277
ltoes 13.4724
368
root 8.29801 18.2899 10.5365 -1.35041 6.56068 -7.22429
lowerback 6.7612 0.512699 6.32326
upperback 0.483445 1.29229 3.57367
thorax -3.24112 0.578468 0.0340664
lowerneck -15.4973 -5.01896 -10.4274
upperneck 19.7897 -5.75682 6.31619
head 9.28223 -2.80674 3.16719
rclavicle -9.19379e-015 -3.18055e-015
rhumerus -37.5991 -4.88219 -76.0389
rradius 32.6933
rwrist -8.35891
rhand -16.8501 11.735
rfingers 7.12502
rthumb 9.37996 -18.0363
lclavicle -9.19379e-015 -3.18055e-015
lhumerus -39.5875 5.51127 80.0111
lradius 37.6214
lwrist 5.19147
lhand -14.2322 22.9727
lfingers 7.12502
lthumb 11.9052 52.6142
rfemur 8.11262 -10.6996 33.0766
rtibia 9.75446
rfoot -9.59292 5.64991
rtoes -14.256
lfemur -32.9382 13.8904 2.86005
ltibia 121.111
lfoot -18.1713 -11.8892
ltoes 9.56171
369
root 8.3095 18.2622 10.5911 -1.25221 6.22727 -7.42189
lowerback 6.97239 0.700025 6.67232
upperback 0.513987 1.58767 3.61509
thorax -3.30678 0.718947 -0.146817
lowerneck -15.6441 -5.05515 -10.4131
upperneck 19.8673 -5.77113 6.20269
head 9.33398 -2.82203 3.12163
rclavicle -7.20594e-015 3.18055e-015
rhumerus -36.8553 -4.91445 -75.8065
rradius 32.0973
rwrist -7.11873
rhand -16.4465 11.1744
rfingers 7.12502
rthumb 9.76935 -18.579
lclavicle -7.20594e-015 3.18055e-015
lhumerus -39.5115 5.62684 79.9391
lradius 38.1405
lwrist 5.07519
lhand -14.2823 23.2938
lfingers 7.12502
lthumb 11.8569 52.9381
rfemur 8.07822 -10.949 33.1613
rtibia 10.0989
rfoot -9.76181 6.04743
rtoes -14.2979
lfemur -34.5201 13.492 1.96144
ltibia 119.801
lfoot -18.5663 -12.9261
ltoes 8.40541
370
root 8.32481 18.232 10.6457 -1.21622 5.86299 -7.57709
lowerback 7.3069 0.883834 7.04739
upperback 0.538945 1.89439 3.64266
thorax -3.4424 0.862115 -0.361085
lowerneck -15.4292 -5.01491 -10.1714
upperneck 19.5164 -5.68745 5.77864
head 9.14512 -2.81034 2.94539
rclavicle 1.94312e-014 -7.55382e-015
rhumerus -36.0695 -4.79635 -75.6826
rradius 31.4405
rwrist -6.61009
rhand -16.5421 10.8234
rfingers 7.12502
rthumb 9.6772 -18.9343
lclavicle 1.94312e-014 -7.55382e-015
lhumerus -39.4248 5.70132 79.9209
lradius 38.3976
lwrist 4.77465
lhand -14.7676 22.5051
lfingers 7.12502
lthumb 11.3889 52.1758
rfemur 8.12755 -11.0344 33.1988
rtibia 10.436
rfoot -9.88433 6.23519
rtoes -14.7507
lfemur -35.9487 13.0127 0.963827
ltibia 118.253
lfoot -18.5184 -14.0675
ltoes 9.51189
371
root 8.33881 18.2182 10.7195 -1.20843 5.52426 -7.66632
lowerback 7.43584 1.00757 7.37078
upperback 0.647428 2.09011 3.63913
thorax -3.37898 0.957779 -0.564407
lowerneck -15.0538 -4.99369 -10.1779
upperneck 18.9482 -5.6448 5.64358
head 8.8741 -2.80611 2.90702
rclavicle -1.6847e-014 -4.96962e-014
rhumerus -35.1695 -4.74301 -75.6069
rradius 30.7443
rwrist -6.15984
rhand -16.8658 11.0606
rfingers 7.12502
rthumb 9.36481 -18.7114
lclavicle -1.6847e-014 -4.96962e-014
lhumerus -39.3402 5.65968 79.9574
lradius 38.6117
lwrist 4.93773
lhand -15.2488 21.6153
lfingers 7.12502
lthumb 10.9248 51.3111
rfemur 8.20498 -11.1283 33.148
rtibia 10.9165
rfoot -10.1473 6.45506
rtoes -15.8616
lfemur -37.1386 12.5873 -0.0270456
ltibia 116.39
lfoot -18.4741 -15.0091
ltoes 8.7294
372
root 8.34961 18.202 10.7974 -1.25634 5.1222 -7.74126
lowerback 7.52012 1.1579 7.64895
upperback 0.843172 2.30641 3.643
thorax -3.19742 1.07016 -0.734642
lowerneck -15.2576 -5.00958 -10.4756
upperneck 19.0063 -5.60955 5.80956
head 8.94274 -2.79088 3.01491
rclavicle 8.79622e-015 -2.26615e-014
rhumerus -34.1834 -4.78993 -75.4839
rradius 30.0926
rwrist -5.84612
rhand -16.9396 11.3333
rfingers 7.12502
rthumb 9.29367 -18.4418
lclavicle 8.79622e-015 -2.26615e-014
lhumerus -39.2362 5.64039 80.026
lradius 39.0179
lwrist 5.31434
lhand -15.2411 21.3954
lfingers 7.12502
lthumb 10.9322 51.0908
rfemur 8.39081 -11.1584 33.0854
rtibia 11.3297
rfoot -10.3914 6.70418
rtoes -16.7885
lfemur -38.063 12.3281 -0.898557
ltibia 114.251
lfoot -18.1443 -15.9511
ltoes 8.01238
373
root 8.3604 18.1704 10.869 -1.23403 4.65515 -7.92283
lowerback 7.62333 1.35421 7.95355
upperback 0.958141 2.59588 3.69427
thorax -3.1046 1.21503 -0.877994
lowerneck -15.4117 -4.95531 -10.5514
upperneck 19.1483 -5.50793 5.83436
head 9.01369 -2.7448 3.04833
rclavicle 4.39314e-014 5.56597e-014
rhumerus -33.3488 -4.91538 -75.3112
rradius 29.5995
rwrist -5.76694
rhand -16.723 11.1152
rfingers 7.12502
rthumb 9.50261 -18.6505
lclavicle 4.39314e-014 5.56597e-014
lhumerus -39.1337 5.61527 80.1036
lradius 39.2521
lwrist 5.5667
lhand -15.2329 21.5272
lfingers 7.12502
lthumb 10.9401 51.2222
rfemur 8.5434 -11.0505 33.1749
rtibia 11.6021
rfoot -10.57 6.87161
rtoes -17.13
lfemur -39.084 12.0955 -1.61538
ltibia 112.018
lfoot -17.9449 -16.7953
ltoes 7.87378
374
root 8.37065 18.1343 10.941 -1.14199 4.27061 -8.44223
lowerback 7.77295 1.51098 8.62665
upperback 0.929638 2.8822 3.77283
thorax -3.16932 1.34562 -1.19883
lowerneck -15.1521 -4.89763 -10.4532
upperneck 19.0104 -5.46927 5.80686
head 8.91145 -2.72522 3.03068
rclavicle -1.65488e-014 -1.35174e-014
rhumerus -32.7492 -5.33849 -75.1481
rradius 29.1047
rwrist -5.47426
rhand -16.9313 10.8992
rfingers 7.12502
rthumb 9.30162 -18.8756
lclavicle -1.65488e-014 -1.35174e-014
lhumerus -39.1799 5.32715 80.1785
lradius 39.397
lwrist 6.05153
lhand -15.539 21.6405
lfingers 7.12502
lthumb 10.6449 51.3508
rfemur 8.46686 -10.9816 33.6583
rtibia 12.0918
rfoot -10.8501 6.97483
rtoes -17.6506
lfemur -40.3497 11.7964 -1.92964
ltibia 109.709
lfoot -18.4704 -17.1703
ltoes 3.32686
375
root 8.38463 18.0984 11.0172 -1.1918 3.92824 -8.93614
lowerback 8.08321 1.63267 9.36121
upperback 0.937011 3.14644 3.82869
thorax -3.27828 1.46254 -1.57992
lowerneck -15.066 -4.89078 -10.5484
upperneck 19.0143 -5.47595 5.94443
head 8.90444 -2.72241 3.0944
rclavicle 4.08502e-014 -1.70955e-014
rhumerus -32.1222 -5.97025 -74.8791
rradius 28.5349
rwrist -4.88945
rhand -17.4995 10.7626
rfingers 7.12502
rthumb 8.75332 -19.0359
lclavicle 4.08502e-014 -1.70955e-014
lhumerus -39.2349 5.14696 80.2322
lradius 39.5345
lwrist 6.4316
lhand -15.8001 21.8668
lfingers 7.12502
lthumb 10.393 51.59
rfemur 8.4568 -11.0108 34.0541
rtibia 12.7976
rfoot -11.2216 7.10016
rtoes -18.1865
lfemur -41.1796 11.4049 -2.26018
ltibia 107.148
lfoot -19.1387 -17.2293
ltoes -0.990492
376
root 8.40161 18.0649 11.0977 -1.21979 3.6806 -9.09529
lowerback 8.21123 1.6742 9.66574
upperback 1.03934 3.23891 3.91825
thorax -3.22239 1.5094 -1.66508
lowerneck -15.0894 -4.80165 -10.6782
upperneck 18.9745 -5.31127 5.92468
head 8.88387 -2.6557 3.12978
rclavicle 1.41137e-014 2.78299e-015
rhumerus -31.2751 -6.53637 -74.45
rradius 28.012
rwrist -4.10464
rhand -17.2998 10.9601
rfingers 7.12502
rthumb 8.94602 -18.8303
lclavicle 1.41137e-014 2.78299e-015
lhumerus -39.2992 5.49807 80.2711
lradius 39.6667
lwrist 6.4135
lhand -16.2713 21.9371
lfingers 7.12502
lthumb 9.93847 51.6825
rfemur 8.45261 -11.0083 34.0938
rtibia 13.5338
rfoot -11.6102 7.14236
rtoes -18.728
lfemur -41.6909 10.9029 -2.96411
ltibia 104.307
lfoot -19.392 -17.2084
ltoes -2.25832
377
root 8.41704 18.0316 11.182 -1.06125 3.49388 -9.22726
lowerback 8.05677 1.70217 9.89831
upperback 1.13186 3.26929 3.99532
thorax -3.02719 1.53256 -1.70632
lowerneck -15.028 -4.67215 -10.5511
upperneck 18.8157 -5.10666 5.66571
head 8.78959 -2.57625 3.04556
rclavicle -1.83379e-014 -3.97569e-016
rhumerus -30.4202 -7.06766 -74.1478
rradius 27.659
rwrist -3.55625
rhand -17.0888 10.8235
rfingers 7.12502
rthumb 9.14963 -18.958
lclavicle -1.83379e-014 -3.97569e-016
lhumerus -39.3853 5.81461 80.2467
lradius 39.7683
lwrist 6.23391
lhand -16.4208 22.3303
lfingers 7.12502
lthumb 9.79419 52.0825
rfemur 8.23075 -10.9382 34.1626
rtibia 14.3208
rfoot -11.9427 7.12989
rtoes -18.69
lfemur -42.3358 10.5033 -3.69528
ltibia 101.221
lfoot -19.3712 -17.0134
ltoes -3.34372
378
root 8.42969 17.9942 11.2655 -0.92657 3.16812 -9.42568
lowerback 8.03417 1.80688 10.2464
upperback 1.20889 3.42722 4.01267
thorax -2.8983 1.61427 -1.88955
lowerneck -14.9554 -4.61957 -10.4316
upperneck 18.6738 -5.03553 5.52587
head 8.7147 -2.54798 2.98682
rclavicle -6.88789e-014 -6.67916e-014
rhumerus -29.5988 -7.65614 -74.0066
rradius 27.2773
rwrist -3.38133
rhand -17.5146 10.3581
rfingers 7.12502
rthumb 8.73881 -19.441
lclavicle -6.88789e-014 -6.67916e-014
lhumerus -39.367 5.79461 80.2208
lradius 39.7595
lwrist 6.28059
lhand -16.2085 22.8064
lfingers 7.12502
lthumb 9.99897 52.5489
rfemur 8.05924 -10.898 34.2728
rtibia 15.0624
rfoot -12.2632 7.28538
rtoes -18.5018
lfemur -42.8028 10.3597 -4.29852
ltibia 97.8907
lfoot -19.6199 -16.5052
ltoes -5.30593
